<svg width="217" height="219" viewBox="0 0 217 219" fill="none" xmlns="http://www.w3.org/2000/svg">
<path fill-rule="evenodd" clip-rule="evenodd" d="M201.388 6.92518e-05H15.5314C6.95369 6.92518e-05 8.8055e-05 6.95367 8.8055e-05 15.5314V109.637C-0.0130631 120.01 1.44697 130.329 4.33413 140.286C4.36571 140.439 4.39965 140.592 4.43595 140.745C5.30899 144.411 7.69908 153.221 10.7844 160.644C11.0892 161.518 11.4749 162.372 11.9422 163.196C23.8864 184.248 42.4604 200.757 64.7686 210.149C87.0768 219.541 111.866 221.287 135.271 215.117C158.675 208.947 179.381 195.206 194.16 176.037C208.939 156.868 216.96 133.348 216.973 109.143V15.5314C216.973 7.11551 210.271 0.237071 201.87 0.00598966C201.821 0.00463735 201.772 0.00351488 201.723 0.0026251C201.611 0.000588051 201.5 -0.000260719 201.388 6.92518e-05Z" fill="white"/>
<path d="M201.883 14.9897V108.593C201.872 129.37 194.987 149.558 182.302 166.012C169.616 182.467 151.843 194.261 131.753 199.557C111.663 204.854 90.3854 203.354 71.2368 195.293C52.0883 187.231 36.145 173.061 25.8926 154.99C40.5282 157.702 55.4875 158.206 70.2725 156.486C105.454 152.408 138.029 135.922 162.151 109.989C186.272 84.0559 200.359 50.3739 201.883 14.9897" fill="#059991"/>
<path d="M201.882 14.9897C196.392 50.0534 178.558 82.0031 151.596 105.082C124.633 128.16 90.3137 140.85 54.8228 140.864C43.1312 140.879 31.4785 139.517 20.1057 136.805C17.353 127.83 15.9599 118.493 15.9727 109.106V14.9897H201.882Z" fill="#004870"/>
<path d="M70.2477 156.486C55.4709 158.204 40.5201 157.7 25.8926 154.99C34.3217 169.862 46.6412 182.158 61.5292 190.559C76.4171 198.96 93.3115 203.148 110.399 202.675C127.487 202.202 144.124 197.085 158.524 187.873C172.924 178.661 184.544 165.702 192.138 150.386C169.967 150.083 148.033 145.782 127.39 137.689C109.833 147.788 90.3951 154.184 70.2725 156.486" fill="#49C1BF"/>
<path d="M19.2791 14.9897H15.9727V109.106C15.9599 118.493 17.353 127.83 20.1057 136.805C31.4785 139.517 43.1312 140.879 54.8228 140.864C74.2056 140.887 93.4053 137.113 111.337 129.754C88.9156 117.959 69.1533 101.687 53.2732 81.9471C37.3931 62.2068 25.733 39.4176 19.0146 14.9897" fill="#00AEEF"/>
</svg>
